<?xml version="1.0" standalone="no"?>
<!DOCTYPE svg PUBLIC "-//W3C//DTD SVG 20010904//EN"
 "http://www.w3.org/TR/2001/REC-SVG-20010904/DTD/svg10.dtd">
<svg version="1.0" xmlns="http://www.w3.org/2000/svg"
 width="304.000000pt" height="212.000000pt" viewBox="0 0 304.000000 212.000000"
 preserveAspectRatio="xMidYMid meet">
<metadata>
Created by potrace 1.13, written by Peter Selinger 2001-2015
</metadata>
<g transform="translate(0.000000,212.000000) scale(0.100000,-0.100000)"
fill="#000000" stroke="none">
<path d="M1292 1970 c-442 -31 -842 -151 -1064 -319 -118 -90 -125 -72 78
-204 l178 -115 37 31 c187 160 551 258 959 260 408 2 748 -82 959 -238 l64
-47 31 18 c17 10 96 60 175 112 163 106 159 93 56 172 -301 232 -910 369
-1473 330z m183 -101 c9 -28 -8 -45 -25 -24 -16 20 -36 19 -44 -1 -8 -22 3
-32 14 -14 14 22 32 -1 28 -36 -4 -32 -24 -43 -32 -17 -3 10 -3 -1 -1 -24 l5
-43 -39 0 c-40 0 -61 13 -41 25 5 3 10 33 10 65 0 32 -5 62 -10 65 -23 14 5
25 65 25 56 0 64 -3 70 -21z m85 -39 c11 -11 20 -33 20 -49 0 -17 5 -33 11
-37 7 -4 10 7 8 33 -2 21 0 44 5 51 7 12 72 12 92 0 6 -4 25 -3 43 2 19 5 31
5 31 -1 0 -5 11 -7 24 -3 14 3 31 2 38 -2 7 -5 25 -7 40 -5 30 3 42 -19 36
-70 -2 -17 2 -32 7 -33 12 -1 25 80 18 112 -5 19 -1 22 26 22 28 0 31 -3 31
-29 0 -23 4 -28 18 -25 9 2 22 1 29 -3 12 -9 21 -118 10 -129 -3 -4 -17 -4
-31 0 -24 6 -25 9 -19 51 4 31 2 45 -6 45 -6 0 -11 -17 -11 -39 0 -47 -9 -55
-47 -40 -27 10 -87 18 -180 22 -47 3 -62 12 -45 29 15 15 16 68 2 68 -5 0 -10
-5 -10 -11 0 -7 -10 -9 -25 -7 -21 4 -25 1 -25 -18 0 -13 5 -24 10 -24 6 0 10
-7 10 -15 0 -11 -11 -15 -40 -15 -23 0 -40 5 -40 11 0 8 -4 8 -12 1 -11 -8
-64 -10 -101 -3 -18 3 -1 56 21 66 12 5 22 16 22 24 0 11 -4 10 -19 -3 -14
-13 -21 -14 -27 -5 -8 14 29 49 52 49 8 0 23 -9 34 -20z m-472 -32 c9 -12 14
-34 24 -93 2 -16 -3 -21 -29 -23 -32 -3 -33 -2 -33 37 0 23 -5 41 -11 41 -6 0
-9 -17 -7 -42 3 -42 2 -43 -29 -44 -17 0 -37 -5 -45 -11 -7 -6 -32 -14 -55
-18 -33 -5 -43 -4 -43 7 0 8 -7 5 -18 -8 -21 -27 -66 -38 -79 -21 -14 17 -15
97 -2 113 15 19 65 18 72 -1 8 -18 -6 -27 -30 -19 -10 3 -4 -3 12 -14 29 -18
31 -18 47 -2 9 10 23 20 30 23 7 2 10 8 6 12 -4 4 -14 2 -23 -5 -20 -16 -33
-4 -19 18 29 45 94 36 94 -13 0 -12 7 -28 15 -35 13 -11 15 -8 15 17 0 16 -5
34 -11 40 -14 14 31 46 54 38 8 -4 18 -2 22 4 8 15 30 14 43 -1z m1165 -62
c18 -8 43 -16 57 -18 27 -3 27 -7 15 -73 -7 -36 -7 -39 8 -27 9 8 17 23 19 34
2 12 11 26 20 31 23 15 68 -6 68 -33 0 -23 -10 -25 -30 -7 -8 7 -7 0 4 -16 19
-30 14 -62 -10 -71 -17 -6 -74 19 -74 33 0 5 -9 7 -21 4 -18 -5 -37 1 -89 27
-11 5 -15 22 -13 66 1 33 2 60 2 62 2 5 14 1 44 -12z m-1695 -48 c23 -23 14
-40 -18 -33 -19 4 -30 3 -30 -4 0 -6 12 -11 27 -11 33 0 63 -26 63 -55 0 -30
-34 -71 -66 -79 -28 -7 -64 15 -64 41 0 16 5 16 30 3 20 -11 53 -3 45 10 -2 4
-16 8 -30 8 -30 0 -65 28 -65 51 0 50 78 99 108 69z"/>
<path d="M1800 1460 c-1 -8 -3 -25 -6 -37 -2 -13 1 -23 6 -23 19 0 10 -21 -12
-29 -16 -6 -18 -10 -8 -16 8 -5 18 -1 27 10 10 15 16 16 25 7 8 -8 9 -12 1
-12 -6 0 -9 -9 -5 -22 3 -14 2 -19 -7 -14 -6 4 -9 12 -6 17 4 5 1 9 -4 9 -15
0 -14 -37 1 -42 8 -3 4 -9 -10 -17 -16 -9 -22 -9 -22 0 0 6 -7 9 -15 5 -9 -3
-15 0 -15 9 0 17 16 20 25 5 3 -5 10 -10 15 -10 14 0 -1 33 -24 51 -22 18 -13
44 13 35 14 -5 13 -4 -1 8 -10 7 -18 19 -18 27 0 11 2 11 11 -1 9 -12 10 -12
5 4 -4 11 -1 23 6 28 8 5 0 7 -22 7 -19 -1 -27 -3 -17 -6 19 -5 21 -12 8 -32
-7 -10 -13 -11 -31 -1 -12 6 -24 9 -27 6 -7 -7 7 -27 16 -22 4 3 8 -1 8 -9 0
-10 -5 -11 -19 -4 -10 5 -18 16 -18 24 0 7 -5 17 -11 20 -12 8 -51 -24 -44
-36 3 -4 0 -11 -7 -15 -8 -5 -5 -10 9 -15 11 -4 23 -17 26 -29 4 -17 3 -19 -9
-9 -11 9 -14 9 -14 0 0 -8 -8 -10 -22 -5 -32 9 -32 9 -14 45 16 31 16 32 -3
15 -11 -10 -25 -18 -33 -20 -21 -3 -38 -16 -38 -29 0 -7 7 -3 15 7 14 18 15
18 15 2 0 -9 4 -15 9 -12 5 3 14 -1 21 -9 7 -8 9 -15 5 -15 -5 0 0 -9 10 -20
18 -19 17 -20 -2 -20 -11 0 -25 11 -33 24 -17 32 -44 38 -69 15 -12 -11 -22
-15 -26 -9 -8 12 2 30 16 30 11 0 48 40 49 53 0 16 -18 6 -23 -13 -3 -11 -10
-20 -17 -20 -6 0 -8 4 -5 10 3 5 1 18 -4 27 -9 16 -10 16 -11 -4 0 -12 -5 -25
-10 -28 -6 -4 -8 -11 -5 -16 8 -12 2 -11 -32 3 -47 19 -57 19 -39 -1 21 -23
21 -37 0 -20 -13 10 -17 10 -24 -1 -6 -9 -4 -17 3 -22 8 -5 4 -8 -10 -8 -12 0
-25 5 -28 10 -5 8 -11 8 -19 1 -9 -7 -16 -7 -24 1 -9 9 -15 9 -24 0 -19 -19
-30 -14 -18 8 6 11 16 19 23 17 7 -1 11 3 10 10 -2 7 4 10 12 7 8 -4 12 -11 8
-17 -3 -6 -1 -7 5 -3 9 5 9 13 2 27 -9 16 -14 17 -30 7 -25 -16 -38 -2 -21 23
7 12 10 24 7 27 -3 3 -6 -1 -6 -8 0 -10 -3 -11 -11 -3 -6 6 -17 10 -23 9 -6
-2 -8 -1 -3 1 4 3 5 8 2 13 -3 4 5 6 17 4 14 -3 9 1 -10 10 -25 12 -38 13 -50
5 -15 -9 -15 -10 1 -5 12 4 17 0 17 -13 0 -11 3 -27 6 -36 5 -13 9 -14 15 -4
11 18 21 6 13 -15 -4 -9 -13 -15 -20 -12 -7 3 -16 -4 -20 -17 -11 -37 -32 -55
-60 -49 -23 4 -23 5 -7 17 13 10 20 10 25 2 4 -7 8 -8 8 -2 0 6 -7 21 -16 33
-8 12 -12 22 -8 22 3 0 1 7 -6 15 -17 20 -48 19 -53 -2 -4 -14 -5 -12 -6 5 0
12 -5 22 -11 22 -5 0 -10 10 -11 23 0 21 -1 21 -8 2 -8 -20 10 -59 38 -81 10
-8 5 -10 -23 -10 -31 1 -34 3 -19 13 15 12 15 15 -5 36 -12 13 -20 26 -17 29
3 2 -5 10 -18 15 -20 9 -23 8 -22 -8 1 -20 11 -33 26 -35 5 -1 14 -2 19 -3 6
0 10 -5 10 -10 0 -18 -45 -6 -68 17 -22 22 -43 29 -41 15 5 -31 -38 -54 -53
-30 -6 9 -8 9 -8 0 0 -6 5 -15 10 -18 6 -4 8 -11 4 -16 -4 -6 -11 -6 -20 2 -9
7 -14 8 -14 1 0 -6 6 -13 13 -15 7 -3 5 -6 -6 -6 -10 -1 -20 6 -23 14 -4 8
-11 12 -16 9 -6 -4 -5 -10 3 -15 12 -8 11 -11 -1 -20 -13 -9 -13 -10 1 -6 13
4 15 1 12 -14 -6 -22 -19 -25 -30 -6 -4 8 -15 16 -24 20 -13 4 -16 0 -15 -19
1 -27 16 -34 16 -7 0 12 3 14 10 7 18 -18 -6 -64 -32 -64 -21 -1 -21 -2 -5
-11 24 -14 4 -53 -24 -44 -20 7 -23 -2 -13 -29 4 -11 11 -13 30 -6 13 5 37 8
53 7 26 -2 28 -4 18 -22 -9 -18 -9 -19 7 -6 15 13 20 11 47 -18 24 -26 29 -29
31 -14 0 10 2 23 3 28 2 6 3 21 4 34 1 20 3 21 16 11 12 -10 15 -10 15 3 0 9
11 17 28 20 25 4 24 4 -6 6 -29 1 -33 4 -28 24 3 12 3 16 0 10 -11 -25 -20
-12 -23 34 -3 55 -8 66 -28 59 -11 -5 -10 1 4 24 9 17 21 30 25 30 11 0 10
-24 -2 -36 -7 -7 -3 -17 11 -30 20 -17 22 -17 16 -1 -4 9 -2 17 3 17 6 0 10
11 10 23 0 33 11 40 30 19 15 -15 15 -18 1 -29 -14 -11 -13 -12 7 -13 20 0 22
-5 23 -57 1 -32 4 -45 6 -30 4 24 8 27 26 20 12 -4 51 -7 87 -8 36 0 71 -4 78
-8 7 -5 12 -4 12 2 0 6 11 11 25 11 14 0 25 -6 25 -12 0 -10 2 -10 8 -1 9 14
122 16 122 2 0 -5 7 -9 16 -9 9 0 14 -6 11 -12 -5 -16 21 -37 46 -38 21 0 22
14 1 46 -13 18 -13 23 -3 19 8 -3 87 -6 177 -8 144 -2 165 -4 173 -19 7 -12
21 -18 42 -17 27 2 28 2 7 6 -26 5 -70 44 -70 62 0 17 33 29 70 25 35 -4 35
-4 7 7 -22 9 -26 14 -16 25 6 7 8 21 5 30 -4 10 -2 14 6 11 7 -2 12 -12 12
-21 -1 -10 6 -16 17 -16 11 0 19 -5 19 -11 0 -5 5 -7 12 -3 7 4 8 3 4 -4 -4
-7 -2 -12 3 -12 6 0 11 -7 11 -17 0 -15 -2 -15 -17 0 -17 15 -18 13 -17 -36 1
-58 20 -127 36 -127 5 0 8 -6 6 -12 -3 -7 2 -19 10 -27 13 -13 12 -16 -4 -22
-17 -7 -17 -8 2 -8 23 -1 60 -46 45 -55 -5 -3 -80 -4 -167 -1 -88 3 -324 5
-526 6 -313 0 -368 2 -368 15 0 8 6 14 13 14 9 0 9 2 1 8 -7 4 -14 18 -17 32
-3 14 -5 -6 -4 -43 0 -58 2 -67 16 -61 9 3 34 8 56 10 106 9 794 6 753 -3 -18
-5 -25 -23 -9 -23 10 0 21 -59 12 -64 -3 -2 -6 -26 -5 -53 0 -26 -5 -51 -10
-55 -6 -4 19 -8 57 -8 41 0 67 4 67 11 0 6 -8 8 -19 4 -16 -5 -20 1 -26 42 -4
31 -3 49 4 51 7 2 8 10 3 20 -12 25 -9 57 6 54 7 -1 26 5 42 13 35 18 72 19
88 3 8 -8 12 -55 12 -142 0 -72 4 -126 8 -120 4 7 18 14 32 17 25 4 25 4 -2 6
-26 1 -28 4 -28 47 0 25 4 43 9 39 5 -3 12 -1 16 5 3 5 1 10 -4 10 -6 0 -11 5
-11 11 0 7 18 9 53 5 35 -4 44 -3 27 3 -14 5 -40 9 -57 10 -31 1 -33 3 -33 37
l0 36 128 -7 c70 -4 129 -9 131 -11 2 -2 4 -44 4 -94 1 -84 2 -90 21 -90 12
-1 54 -2 94 -4 40 -2 75 1 78 6 9 14 -31 48 -55 48 -11 0 -27 11 -36 24 -17
25 -10 60 10 52 16 -6 28 63 14 80 -7 9 -7 19 0 33 6 11 11 27 11 36 0 21 -39
54 -62 55 -15 0 -17 7 -15 40 2 22 0 45 -5 52 -5 9 -8 8 -8 -5 0 -10 -4 -16
-9 -13 -5 3 -12 -1 -15 -10 -4 -9 -9 -14 -12 -11 -4 3 3 18 15 33 l21 27 -21
15 c-11 7 -23 11 -26 8 -3 -3 -15 -1 -26 5 -13 7 -17 7 -13 1 3 -6 2 -13 -3
-16 -5 -3 -11 3 -14 14 -7 27 -35 25 -40 -2 -3 -15 -4 -14 -2 5 2 34 -18 52
-56 49 -34 -3 -36 4 -11 31 9 11 12 17 5 14 -6 -4 -14 -3 -18 3 -3 5 -1 10 5
10 7 0 8 6 1 19 -6 10 -7 22 -3 26 4 5 1 5 -5 1 -9 -5 -13 0 -13 16 -1 22 -1
22 -12 4 -8 -15 -7 -21 6 -28 9 -5 16 -15 16 -22 0 -16 -27 -29 -41 -20 -5 3
-9 -1 -9 -8 -1 -7 -8 -1 -16 15 -16 30 -27 37 -17 10 4 -11 3 -14 -5 -9 -19
12 -14 33 11 40 l22 6 -25 17 c-29 20 -60 27 -60 14 0 -6 9 -8 19 -6 24 5 33
-15 16 -38 -11 -15 -14 -15 -18 -3 -3 8 -1 17 6 20 7 2 2 5 -10 5 -12 1 -25
-4 -28 -9 -4 -6 -11 -8 -16 -4 -5 3 -7 10 -4 15 4 5 -2 9 -12 9 -21 1 -63 33
-63 49 0 19 19 12 36 -14 12 -19 20 -23 34 -15 9 5 20 7 22 4 3 -2 3 8 1 23
l-4 28 20 -24 c12 -13 21 -19 21 -15 -1 32 -70 60 -70 29 0 -9 5 -13 10 -10 6
3 10 0 10 -8 0 -23 -25 -27 -38 -6 -8 13 -9 19 -1 19 5 0 8 4 5 9 -3 5 -15 7
-25 4 -13 -3 -21 1 -24 14 -3 12 -5 14 -7 3z m389 -430 c40 -52 63 -91 57 -97
-2 -3 -15 -4 -28 -4 -13 1 -66 3 -118 5 -52 2 -101 5 -107 5 -18 1 -16 31 2
31 8 0 15 9 15 20 0 11 -4 20 -9 20 -13 0 -24 37 -16 50 4 7 40 10 92 8 84 -3
86 -3 112 -38z"/>
<path d="M850 860 c0 -5 7 -10 16 -10 8 0 12 -4 9 -10 -3 -5 1 -10 9 -10 20 0
20 -7 2 -26 -12 -11 -17 -12 -23 -2 -12 19 -41 18 -39 -1 0 -9 6 -19 11 -23 7
-5 7 -8 0 -8 -15 0 -28 12 -42 37 -16 28 -16 36 -2 27 7 -4 10 -1 7 7 -7 21
-44 18 -40 -3 2 -15 -36 -67 -39 -53 -1 3 -2 9 -3 14 -2 15 -15 25 -36 28 -14
2 -20 -3 -20 -17 0 -11 -4 -20 -10 -20 -5 0 -10 -7 -10 -15 0 -8 8 -15 18 -15
13 0 14 2 3 9 -8 5 -9 11 -3 15 6 4 14 0 19 -7 10 -17 53 -32 53 -19 0 6 7 12
15 16 12 4 14 0 9 -20 -8 -32 6 -42 54 -38 25 2 32 0 22 -7 -12 -7 -11 -9 5
-10 11 -1 24 -1 28 0 4 1 2 -9 -4 -21 -11 -20 -10 -21 3 -11 11 10 17 10 27 0
11 -10 11 -8 2 10 -6 12 -11 24 -11 27 0 8 34 -6 43 -18 6 -7 7 -5 4 4 -5 16
17 43 27 33 3 -4 6 -1 6 5 0 7 -7 12 -15 12 -8 0 -15 6 -15 13 0 8 -4 7 -10
-3 -9 -13 -11 -13 -20 0 -5 8 -10 10 -10 4 0 -5 -7 -19 -16 -30 -14 -18 -15
-18 -8 6 4 14 7 31 7 38 0 6 6 12 13 12 12 0 24 22 24 46 0 7 -13 20 -30 29
-17 9 -30 11 -30 5z"/>
<path d="M1571 757 c15 -12 36 -30 49 -40 12 -10 19 -21 16 -24 -3 -3 -25 11
-50 31 -24 20 -47 36 -50 36 -4 0 -22 -14 -41 -31 -19 -18 -43 -38 -54 -46
-18 -12 -20 -11 -19 9 1 13 6 30 12 38 6 8 -1 5 -15 -5 -15 -11 -25 -23 -23
-27 2 -4 0 -9 -5 -13 -14 -8 -2 -35 15 -35 9 0 15 -13 16 -37 1 -38 1 -38 7 7
4 28 11 44 19 42 6 -1 12 5 12 15 0 9 3 14 6 10 3 -3 17 7 31 24 29 34 42 36
70 9 20 -18 22 -31 22 -139 1 -103 -1 -120 -14 -115 -8 4 -12 11 -8 18 4 6 -5
3 -20 -7 -16 -10 -38 -17 -50 -15 -20 3 -22 9 -25 86 -2 45 -6 82 -10 82 -4 0
-6 -38 -4 -85 3 -72 1 -85 -12 -85 -9 0 -16 6 -16 13 0 9 -2 9 -8 0 -9 -14
-51 -14 -69 0 -7 5 -17 6 -23 2 -5 -3 -10 -1 -10 4 0 6 -10 11 -21 11 -17 0
-19 -3 -10 -14 9 -11 9 -15 -1 -19 -10 -4 -10 -6 0 -6 20 -2 14 -41 -7 -41
-22 0 -32 30 -19 54 7 13 4 16 -16 16 -13 0 -27 6 -29 13 -4 9 -6 9 -6 -1 -1
-7 -5 -10 -11 -7 -5 3 -10 2 -10 -4 0 -7 -8 -7 -23 -2 -14 6 -30 5 -42 -1 -11
-7 -60 -9 -124 -6 -58 3 -91 3 -73 1 23 -3 32 -9 32 -22 0 -20 26 -31 73 -31
15 0 27 -4 27 -10 0 -5 -5 -10 -12 -10 -9 0 -8 -3 1 -12 11 -10 14 -10 18 0 3
6 11 12 19 12 9 0 12 -5 8 -11 -4 -8 0 -8 15 0 18 10 20 9 14 -6 -5 -13 -3
-15 12 -10 10 5 29 1 44 -8 15 -10 8 0 -16 23 -24 22 -43 44 -43 50 0 16 30
23 50 12 12 -6 20 -6 22 0 5 15 48 0 48 -17 0 -8 -5 -23 -10 -33 -8 -16 -8
-18 5 -14 8 4 15 1 15 -6 0 -9 3 -10 13 -1 8 6 17 8 21 4 9 -9 35 28 36 50 0
20 35 23 43 3 3 -7 0 -19 -6 -26 -10 -10 -8 -12 6 -6 10 3 25 6 33 6 8 0 14 9
14 20 0 11 5 20 11 20 6 0 13 -9 16 -20 3 -11 9 -20 13 -20 5 0 6 9 3 20 -7
25 28 28 52 4 15 -15 17 -15 22 5 7 29 48 25 48 -4 0 -20 -4 -21 -73 -24 -14
-1 -22 -6 -20 -13 5 -15 58 -30 58 -16 0 7 5 7 13 1 6 -5 18 -8 25 -7 6 1 17
2 22 3 6 0 10 19 10 41 0 28 4 40 14 40 17 0 28 -23 34 -70 5 -47 12 -51 12
-8 0 23 5 38 16 42 22 8 26 8 19 -4 -3 -6 1 -7 9 -4 13 5 16 -4 18 -47 l2 -54
3 47 c3 35 9 51 24 58 13 8 19 8 19 0 0 -6 5 -8 10 -5 6 4 24 8 40 10 23 3 30
0 30 -13 1 -16 1 -16 11 1 6 9 7 26 4 37 -10 33 35 23 48 -10 4 -12 6 -11 6 3
1 9 8 17 16 17 7 0 19 -8 24 -17 9 -16 10 -16 11 5 0 15 6 22 20 22 19 0 25
-11 20 -35 -1 -5 2 -6 7 -2 4 5 8 14 8 20 0 7 11 12 25 12 15 0 24 -5 22 -12
-2 -14 8 -16 32 -7 8 3 12 12 9 20 -6 17 8 18 26 2 11 -11 13 -10 8 5 -8 21
21 24 43 5 12 -11 12 -10 2 4 -10 13 -10 17 0 21 18 6 -31 46 -58 47 -11 0
-25 5 -30 10 -7 7 -16 4 -29 -10 -23 -25 -36 -25 -63 0 -26 25 -29 15 -4 -13
12 -15 14 -21 5 -24 -7 -3 -13 -10 -13 -17 0 -7 -7 -13 -14 -13 -11 0 -13 5
-5 19 8 14 6 18 -8 18 -15 0 -16 2 -3 10 12 8 9 10 -12 10 -30 0 -40 -26 -14
-36 26 -10 6 -32 -26 -31 -33 2 -48 31 -22 41 8 3 14 11 14 17 0 7 -8 5 -20
-6 -11 -10 -20 -23 -20 -30 0 -17 -48 -37 -53 -22 -2 8 -5 8 -11 -1 -4 -7 -2
-12 3 -12 6 0 11 -4 11 -10 0 -13 -157 -13 -164 -1 -4 5 0 12 6 14 7 3 -6 6
-30 6 l-43 1 2 109 c3 103 4 109 22 100 13 -7 23 -7 32 1 12 10 5 20 -38 56
-28 24 -56 44 -62 43 -5 0 2 -10 16 -22z"/>
</g>
</svg>
